<svg width="80" height="72" viewBox="0 0 80 72" fill="none" xmlns="http://www.w3.org/2000/svg">
<g clip-path="url(#clip0_1084_1966)">
<path d="M13.3333 17.7778C15.0914 17.7778 16.81 17.2565 18.2717 16.2797C19.7335 15.303 20.8728 13.9148 21.5456 12.2905C22.2184 10.6663 22.3944 8.87903 22.0514 7.15476C21.7084 5.43048 20.8619 3.84663 19.6187 2.6035C18.3756 1.36037 16.7917 0.513781 15.0675 0.170802C13.3432 -0.172178 11.5559 0.00385139 9.9317 0.67663C8.30747 1.34941 6.91922 2.48872 5.94249 3.95049C4.96577 5.41226 4.44444 7.13084 4.44444 8.88889C4.44444 11.2464 5.38095 13.5073 7.04794 15.1743C8.71493 16.8413 10.9759 17.7778 13.3333 17.7778ZM13.3333 42.2333C13.3314 41.4028 13.4983 40.5805 13.8239 39.8165C14.1496 39.0525 14.6272 38.3626 15.2278 37.7889L25.2458 28.3333C25.475 28.1181 25.7694 28.0125 26.025 27.8375C25.3714 26.1828 24.2356 24.7627 22.765 23.7615C21.2944 22.7602 19.5569 22.2239 17.7778 22.2222H8.88889C6.53141 22.2222 4.27049 23.1587 2.6035 24.8257C0.936505 26.4927 0 28.7536 0 31.1111L0 44.4445C0 45.6232 0.468253 46.7537 1.30175 47.5871C2.13524 48.4206 3.2657 48.8889 4.44444 48.8889V66.6667C4.44444 67.8454 4.9127 68.9759 5.74619 69.8094C6.57969 70.6429 7.71015 71.1111 8.88889 71.1111H17.7778C18.9565 71.1111 20.087 70.6429 20.9205 69.8094C21.754 68.9759 22.2222 67.8454 22.2222 66.6667V53.2792L15.2278 46.6778C14.627 46.1042 14.1493 45.4144 13.8236 44.6503C13.4979 43.8863 13.3311 43.0639 13.3333 42.2333ZM66.6667 17.7778C68.4247 17.7778 70.1433 17.2565 71.6051 16.2797C73.0668 15.303 74.2062 13.9148 74.8789 12.2905C75.5517 10.6663 75.7277 8.87903 75.3848 7.15476C75.0418 5.43048 74.1952 3.84663 72.9521 2.6035C71.7089 1.36037 70.1251 0.513781 68.4008 0.170802C66.6765 -0.172178 64.8893 0.00385139 63.265 0.67663C61.6408 1.34941 60.2526 2.48872 59.2758 3.95049C58.2991 5.41226 57.7778 7.13084 57.7778 8.88889C57.7778 11.2464 58.7143 13.5073 60.3813 15.1743C62.0483 16.8413 64.3092 17.7778 66.6667 17.7778ZM71.1111 22.2222H62.2222C60.4433 22.2238 58.7059 22.7599 57.2353 23.7609C55.7647 24.7619 54.6288 26.1817 53.975 27.8361C54.2306 28.0125 54.5306 28.1139 54.7556 28.3347L64.7722 37.7875C65.3709 38.3626 65.8473 39.0527 66.1727 39.8164C66.4981 40.5802 66.6658 41.4018 66.6658 42.232C66.6658 43.0621 66.4981 43.8837 66.1727 44.6475C65.8473 45.4112 65.3709 46.1013 64.7722 46.6764L57.7778 53.2806V66.6667C57.7778 67.8454 58.246 68.9759 59.0795 69.8094C59.913 70.6429 61.0435 71.1111 62.2222 71.1111H71.1111C72.2899 71.1111 73.4203 70.6429 74.2538 69.8094C75.0873 68.9759 75.5556 67.8454 75.5556 66.6667V48.8889C76.7343 48.8889 77.8648 48.4206 78.6983 47.5871C79.5318 46.7537 80 45.6232 80 44.4445V31.1111C80 28.7536 79.0635 26.4927 77.3965 24.8257C75.7295 23.1587 73.4686 22.2222 71.1111 22.2222ZM61.7222 41.0195L51.7056 31.5667C51.4691 31.3413 51.1717 31.1903 50.8502 31.1326C50.5287 31.0749 50.1973 31.1129 49.8972 31.2419C49.5971 31.3709 49.3416 31.5853 49.1623 31.8584C48.983 32.1314 48.888 32.4511 48.8889 32.7778V37.7778H31.1111V32.7778C31.1123 32.451 31.0174 32.1311 30.8383 31.8578C30.6591 31.5846 30.4036 31.37 30.1034 31.2408C29.8033 31.1116 29.4718 31.0734 29.1502 31.1311C28.8285 31.1888 28.531 31.3398 28.2944 31.5653L18.2778 41.0195C17.9576 41.342 17.7779 41.7781 17.7779 42.2326C17.7779 42.6872 17.9576 43.1232 18.2778 43.4458L28.2944 52.9C28.531 53.1256 28.8288 53.2766 29.1505 53.3342C29.4723 53.3919 29.8039 53.3536 30.1041 53.2243C30.4043 53.0949 30.6598 52.8801 30.8389 52.6066C31.0179 52.3331 31.1126 52.013 31.1111 51.6861V46.6667H48.8889V51.6861C48.8874 52.013 48.9821 52.3331 49.1611 52.6066C49.3402 52.8801 49.5957 53.0949 49.8959 53.2243C50.1961 53.3536 50.5277 53.3919 50.8495 53.3342C51.1712 53.2766 51.469 53.1256 51.7056 52.9L61.7222 43.4458C62.0424 43.1232 62.2221 42.6872 62.2221 42.2326C62.2221 41.7781 62.0424 41.342 61.7222 41.0195Z" fill="white"/>
</g>
<defs>
<clipPath id="clip0_1084_1966">
<rect width="80" height="71.1111" fill="white"/>
</clipPath>
</defs>
</svg>
