<svg width="80" height="56" viewBox="0 0 80 56" fill="none" xmlns="http://www.w3.org/2000/svg">
<path d="M77.645 2.8075C72.7962 0.77375 67.9437 1.50345e-07 63.0938 1.50345e-07C47.6975 -0.00124985 32.3025 7.7925 16.9062 7.7925C13.045 7.7925 9.18625 7.3025 5.325 6.0775C4.89125 5.94 4.45625 5.875 4.03125 5.875C1.88 5.875 0 7.54 0 9.85125V49.5088C0 51.0875 0.90375 52.5838 2.355 53.1912C7.20375 55.2262 12.0562 56 16.9062 56C32.3025 56 47.6988 48.2062 63.095 48.2062C66.9563 48.2062 70.815 48.6963 74.6762 49.9212C75.11 50.0588 75.545 50.1237 75.97 50.1237C78.1213 50.1237 80.0013 48.4587 80.0013 46.1475V6.49125C80 4.91125 79.0962 3.41625 77.645 2.8075ZM40 40C34.4762 40 30 34.6263 30 28C30 21.3725 34.4775 16 40 16C45.5225 16 50 21.3725 50 28C50 34.6287 45.5212 40 40 40Z" fill="white"/>
</svg>
