<svg width="80" height="80" viewBox="0 0 80 80" fill="none" xmlns="http://www.w3.org/2000/svg">
<g clip-path="url(#clip0_1084_2110)">
<path d="M38.0311 0.40625L3.03111 15.4062C0.843607 16.3438 -0.375142 18.6875 0.109233 21C0.593607 23.3125 2.62486 25 4.99986 25V26.25C4.99986 28.3281 6.67173 30 8.74986 30H71.2499C73.328 30 74.9999 28.3281 74.9999 26.25V25C77.3749 25 79.4217 23.3281 79.8905 21C80.3592 18.6719 79.1405 16.3281 76.9686 15.4062L41.9686 0.40625C40.703 -0.125 39.2811 -0.125 38.0311 0.40625ZM19.9999 35H9.99986V65.6719C9.90611 65.7188 9.81236 65.7812 9.71861 65.8438L2.21861 70.8438C0.390483 72.0625 -0.437642 74.3438 0.202982 76.4531C0.843607 78.5625 2.79673 80 4.99986 80H74.9999C77.203 80 79.1405 78.5625 79.7811 76.4531C80.4217 74.3438 79.6092 72.0625 77.7655 70.8438L70.2655 65.8438C70.1717 65.7812 70.078 65.7344 69.9842 65.6719V35H59.9999V65H53.7499V35H43.7499V65H36.2499V35H26.2499V65H19.9999V35ZM39.9999 20C37.2342 20 34.9999 17.7656 34.9999 15C34.9999 12.2344 37.2342 10 39.9999 10C42.7655 10 44.9999 12.2344 44.9999 15C44.9999 17.7656 42.7655 20 39.9999 20Z" fill="white"/>
</g>
<defs>
<clipPath id="clip0_1084_2110">
<rect width="80" height="80" fill="white"/>
</clipPath>
</defs>
</svg>
