<svg width="60" height="60" viewBox="0 0 60 60" fill="none" xmlns="http://www.w3.org/2000/svg">
<g opacity="0.6">
<path d="M55.6641 24.4452C55.6059 24.1831 55.4921 23.9365 55.3303 23.7222C55.1686 23.5079 54.9627 23.3309 54.7266 23.203L49.1485 20.1093C48.8495 19.5029 48.5129 18.9158 48.1407 18.3514L48.2579 11.9764C48.26 11.7091 48.207 11.4441 48.1022 11.1981C47.9973 10.9521 47.8429 10.7304 47.6485 10.5468C44.8711 8.02855 41.5864 6.1345 38.0157 4.99207C37.7593 4.91211 37.4888 4.88748 37.2221 4.9198C36.9555 4.95212 36.6987 5.04066 36.4688 5.17957L31.0079 8.46082C30.3282 8.43738 29.6719 8.43738 28.9922 8.46082L23.5313 5.17957C23.3014 5.04066 23.0446 4.95212 22.778 4.9198C22.5113 4.88748 22.2409 4.91211 21.9844 4.99207C18.409 6.13537 15.1229 8.03822 12.3516 10.5702C12.1555 10.7475 11.9997 10.9647 11.8946 11.2073C11.7895 11.4499 11.7375 11.7121 11.7422 11.9764L11.8594 18.3514C11.4844 18.9139 11.1563 19.4999 10.8282 20.1093L5.25006 23.203C5.01737 23.3322 4.81528 23.51 4.65754 23.7244C4.4998 23.9388 4.39013 24.1846 4.33599 24.4452C3.53904 28.1054 3.53904 31.8943 4.33599 35.5546C4.39421 35.8167 4.50804 36.0632 4.66978 36.2775C4.83152 36.4918 5.0374 36.6689 5.27349 36.7968L10.8516 39.8905C11.1506 40.4968 11.4872 41.0839 11.8594 41.6483L11.7422 48.0233C11.7401 48.2907 11.7931 48.5557 11.898 48.8017C12.0028 49.0476 12.1572 49.2694 12.3516 49.453C15.1291 51.9712 18.4137 53.8653 21.9844 55.0077C22.2409 55.0876 22.5113 55.1123 22.778 55.08C23.0446 55.0476 23.3014 54.9591 23.5313 54.8202L28.9922 51.5389H31.0079L36.4922 54.8202C36.7773 55.0077 37.112 55.1056 37.4532 55.1014C37.6438 55.0932 37.8327 55.0617 38.0157 55.0077C41.5912 53.8644 44.8772 51.9615 47.6485 49.4296C47.8446 49.2523 48.0004 49.035 48.1055 48.7924C48.2106 48.5499 48.2626 48.2876 48.2579 48.0233L48.1407 41.6483C48.5157 41.0858 48.8438 40.4999 49.1719 39.8905L54.7501 36.7968C54.9827 36.6676 55.1848 36.4897 55.3426 36.2754C55.5003 36.061 55.61 35.8151 55.6641 35.5546C56.4611 31.8943 56.4611 28.1054 55.6641 24.4452ZM30.0001 40.3124C27.9604 40.3124 25.9666 39.7076 24.2707 38.5744C22.5749 37.4413 21.2531 35.8307 20.4725 33.9463C19.692 32.0619 19.4878 29.9884 19.8857 27.988C20.2836 25.9876 21.2658 24.1501 22.708 22.7078C24.1502 21.2656 25.9878 20.2834 27.9882 19.8855C29.9886 19.4876 32.0621 19.6918 33.9465 20.4724C35.8308 21.2529 37.4414 22.5747 38.5746 24.2706C39.7077 25.9664 40.3126 27.9603 40.3126 29.9999C40.3126 32.7349 39.2261 35.358 37.2921 37.2919C35.3581 39.2259 32.7351 40.3124 30.0001 40.3124Z" fill="url(#paint0_linear_1084_464)"/>
</g>
<defs>
<linearGradient id="paint0_linear_1084_464" x1="3.73828" y1="30.0038" x2="57.0811" y2="53.2191" gradientUnits="userSpaceOnUse">
<stop stop-color="#3C97F4"/>
<stop offset="1" stop-color="#3BC2FC"/>
</linearGradient>
</defs>
</svg>
