<svg width="80" height="80" viewBox="0 0 80 80" fill="none" xmlns="http://www.w3.org/2000/svg">
<g clip-path="url(#clip0_1296_8)">
<path d="M62.3389 29.955L62.3939 30.43L62.4114 30.915V49.085C62.4112 50.1065 62.1606 51.1123 61.6816 52.0144C61.2027 52.9166 60.5099 53.6876 59.6639 54.26L59.2889 54.4975L43.5514 63.5825L43.2414 63.75L42.9264 63.9V41.425L62.3389 29.955ZM18.5139 29.955L37.9264 41.4275V63.8975C37.7124 63.8042 37.5037 63.6991 37.3014 63.5825L21.5664 54.4975C20.6163 53.949 19.8273 53.16 19.2788 52.21C18.7302 51.2599 18.4414 50.1821 18.4414 49.085V30.915C18.4414 30.59 18.4664 30.27 18.5164 29.955H18.5139ZM43.5514 16.4175L59.2864 25.5025C59.4114 25.5775 59.5364 25.6525 59.6564 25.7325L40.4264 37.095L21.1964 25.7325C21.317 25.6515 21.4404 25.5748 21.5664 25.5025L37.3014 16.4175C38.2515 15.869 39.3293 15.5802 40.4264 15.5802C41.5235 15.5802 42.6013 15.869 43.5514 16.4175Z" fill="#007FFF"/>
</g>
<defs>
<clipPath id="clip0_1296_8">
<rect width="59.4898" height="60" fill="white" transform="translate(10 10)"/>
</clipPath>
</defs>
</svg>
