<svg width="1214" height="234" viewBox="0 0 1214 234" fill="none" xmlns="http://www.w3.org/2000/svg">
<rect width="1206" height="226" rx="30" transform="matrix(-1 0 0 1 1210 0)" fill="url(#paint0_linear_1084_1772)"/>
<mask id="mask0_1084_1772" style="mask-type:alpha" maskUnits="userSpaceOnUse" x="4" y="0" width="1206" height="226">
<rect width="1206" height="226" rx="30" transform="matrix(-1 0 0 1 1210 0)" fill="url(#paint1_linear_1084_1772)"/>
</mask>
<g mask="url(#mask0_1084_1772)">
<g opacity="0.5" filter="url(#filter0_f_1084_1772)">
<ellipse cx="125.162" cy="441.814" rx="125.162" ry="441.814" transform="matrix(-0.922608 -0.385738 -0.835494 0.5495 478.102 -79.5669)" fill="#DFDFDF"/>
</g>
<g filter="url(#filter1_f_1084_1772)">
<ellipse cx="125.162" cy="441.814" rx="125.162" ry="441.814" transform="matrix(-0.922608 -0.385738 -0.835494 0.5495 380.98 -222.017)" fill="url(#paint2_linear_1084_1772)"/>
</g>
<g opacity="0.5" filter="url(#filter2_f_1084_1772)">
<ellipse cx="329.964" cy="492.752" rx="329.964" ry="492.752" transform="matrix(-0.922608 -0.385738 -0.835494 0.5495 1879.21 138.355)" fill="white"/>
</g>
</g>
<defs>
<filter id="filter0_f_1084_1772" x="-643.383" y="-382.648" width="1273.75" height="995.157" filterUnits="userSpaceOnUse" color-interpolation-filters="sRGB">
<feFlood flood-opacity="0" result="BackgroundImageFix"/>
<feBlend mode="normal" in="SourceGraphic" in2="BackgroundImageFix" result="shape"/>
<feGaussianBlur stdDeviation="125" result="effect1_foregroundBlur_1084_1772"/>
</filter>
<filter id="filter1_f_1084_1772" x="-740.504" y="-525.098" width="1273.75" height="995.157" filterUnits="userSpaceOnUse" color-interpolation-filters="sRGB">
<feFlood flood-opacity="0" result="BackgroundImageFix"/>
<feBlend mode="normal" in="SourceGraphic" in2="BackgroundImageFix" result="shape"/>
<feGaussianBlur stdDeviation="125" result="effect1_foregroundBlur_1084_1772"/>
</filter>
<filter id="filter2_f_1084_1772" x="401.043" y="-267.418" width="1524.11" height="1098.52" filterUnits="userSpaceOnUse" color-interpolation-filters="sRGB">
<feFlood flood-opacity="0" result="BackgroundImageFix"/>
<feBlend mode="normal" in="SourceGraphic" in2="BackgroundImageFix" result="shape"/>
<feGaussianBlur stdDeviation="125" result="effect1_foregroundBlur_1084_1772"/>
</filter>
<linearGradient id="paint0_linear_1084_1772" x1="-8.9854e-06" y1="113" x2="245.831" y2="658.613" gradientUnits="userSpaceOnUse">
<stop stop-color="#3C97F4"/>
<stop offset="1" stop-color="#3BC2FC"/>
</linearGradient>
<linearGradient id="paint1_linear_1084_1772" x1="-8.9854e-06" y1="113" x2="245.831" y2="658.613" gradientUnits="userSpaceOnUse">
<stop stop-color="#3C97F4"/>
<stop offset="1" stop-color="#3BC2FC"/>
</linearGradient>
<linearGradient id="paint2_linear_1084_1772" x1="125.162" y1="0" x2="125.162" y2="883.628" gradientUnits="userSpaceOnUse">
<stop stop-color="#23B6AE"/>
<stop offset="0.9999" stop-color="#F3A100" stop-opacity="0.72"/>
<stop offset="1" stop-color="#23B6AE"/>
</linearGradient>
</defs>
</svg>
