<svg width="40" height="40" viewBox="0 0 40 40" fill="none" xmlns="http://www.w3.org/2000/svg">
<path d="M11.1673 24.5001C10.8618 24.1945 10.709 23.8056 10.709 23.3334C10.709 22.8612 10.8618 22.4723 11.1673 22.1667L18.834 14.5001C19.0007 14.3334 19.1812 14.2151 19.3757 14.1451C19.5701 14.0762 19.7784 14.0417 20.0007 14.0417C20.2229 14.0417 20.4384 14.0834 20.6473 14.1667C20.8551 14.2501 21.0284 14.3612 21.1673 14.5001L28.834 22.1667C29.1395 22.4723 29.2923 22.8612 29.2923 23.3334C29.2923 23.8056 29.1395 24.1945 28.834 24.5001C28.5284 24.8056 28.1395 24.9584 27.6673 24.9584C27.1951 24.9584 26.8062 24.8056 26.5006 24.5001L20.0007 18.0001L13.5007 24.5001C13.1951 24.8056 12.8062 24.9584 12.334 24.9584C11.8618 24.9584 11.4729 24.8056 11.1673 24.5001Z" fill="url(#paint0_linear_1084_393)"/>
<defs>
<linearGradient id="paint0_linear_1084_393" x1="10.709" y1="19.5001" x2="25.6614" y2="30.0867" gradientUnits="userSpaceOnUse">
<stop stop-color="#3C97F4"/>
<stop offset="1" stop-color="#3BC2FC"/>
</linearGradient>
</defs>
</svg>
